<svg xmlns="http://www.w3.org/2000/svg" viewBox="0 0 133.04 80.69"><defs><style>.cls-1{fill:none;stroke-width:1.5px;}.cls-1,.cls-2{stroke:#000;stroke-miterlimit:10;}.cls-2{stroke-width:1.3px;}</style></defs><title>logo</title><g id="Layer_2" data-name="Layer 2"><g id="Ebene_1" data-name="Ebene 1"><path d="M5.62,78l.29,1H6l.29-1,4.34-11.9h1.28L6.5,80.48H5.37L0,66.05H1.29Zm0,0"/><path d="M21.66,73.5H15.19v6h7.48v1H14V66.05h8.62v1H15.19v5.42h6.47Zm0,0"/><path d="M35.43,78.54A4.42,4.42,0,0,1,33.67,80a6.82,6.82,0,0,1-3.23.68A5.3,5.3,0,0,1,26.37,79a6.28,6.28,0,0,1-1.58-4.44V71.89a6.22,6.22,0,0,1,1.54-4.36,5.13,5.13,0,0,1,4-1.68A5.36,5.36,0,0,1,34,67.09a3.92,3.92,0,0,1,1.35,3.15l0,.06H34.24a3.24,3.24,0,0,0-1-2.47,4.1,4.1,0,0,0-2.92-1,3.89,3.89,0,0,0-3.13,1.41A5.38,5.38,0,0,0,26,71.87v2.66a5.49,5.49,0,0,0,1.24,3.71,4,4,0,0,0,3.23,1.45,5.83,5.83,0,0,0,2.48-.46,3.08,3.08,0,0,0,1.34-1.06v-3.7H30.37v-1h5.06Zm0,0"/><path d="M43,66.05,37.7,80.48h1.23l4.61-12.73h.06c1.49,4.19,3.17,8.86,4.56,12.73h1.23L44.12,66.05Zm0,0"/><path d="M62.25,80.48H61.06L52.86,68.14H52.8V80.48H51.62V66.05H52.8L61,78.37h.06V66.05h1.19Zm0,0"/><path d="M73.58,73.5H67.11v6h7.48v1H65.92V66.05h8.62v1H67.11v5.42h6.47Zm0,0"/><path d="M86.12,78l.29,1h.06l.29-1,4.34-11.9h1.28L87,80.48H85.87L80.5,66.05h1.29Zm0,0"/><rect x="94.81" y="66.05" width="1.19" height="14.43"/><path d="M100,80.48V66.05h4.21a5.72,5.72,0,0,1,3.51,1A3.33,3.33,0,0,1,109,69.85a3,3,0,0,1-.62,1.89,3.23,3.23,0,0,1-1.63,1.15A3.35,3.35,0,0,1,109,74.08a3.57,3.57,0,0,1,.87,2.39,3.64,3.64,0,0,1-1.26,3,5.05,5.05,0,0,1-3.35,1Zm1.19-7v6h4a3.72,3.72,0,0,0,2.51-.78,2.76,2.76,0,0,0,.91-2.21,2.68,2.68,0,0,0-.9-2.1,3.6,3.6,0,0,0-2.4-.86Zm0-1h3.47a3.61,3.61,0,0,0,2.31-.71,2.47,2.47,0,0,0,.82-2,2.4,2.4,0,0,0-.91-2.05,4.35,4.35,0,0,0-2.67-.69h-3Zm0,0"/><path d="M120.19,73.5h-6.47v6h7.48v1h-8.67V66.05h8.62v1h-7.43v5.42h6.47Zm0,0"/><path d="M131.84,77a2.27,2.27,0,0,0-.88-1.83,9,9,0,0,0-3-1.36,10.15,10.15,0,0,1-3.52-1.58,3.12,3.12,0,0,1-1.2-2.58,3.31,3.31,0,0,1,1.35-2.71A5.36,5.36,0,0,1,128,65.85a5.08,5.08,0,0,1,3.54,1.21,3.81,3.81,0,0,1,1.3,3.05l0,.06h-1.11a3.06,3.06,0,0,0-1-2.37,3.8,3.8,0,0,0-2.67-.94,4,4,0,0,0-2.64.8,2.45,2.45,0,0,0-1,2,2.25,2.25,0,0,0,.86,1.81,9,9,0,0,0,3.06,1.32,10,10,0,0,1,3.48,1.64A3.15,3.15,0,0,1,133,77a3.21,3.21,0,0,1-1.41,2.72,5.82,5.82,0,0,1-3.53,1,6.44,6.44,0,0,1-3.72-1.08,3.5,3.5,0,0,1-1.54-3.17l0-.06H124a2.78,2.78,0,0,0,1.26,2.5,5.18,5.18,0,0,0,2.87.81,4.48,4.48,0,0,0,2.7-.75,2.33,2.33,0,0,0,1-2Zm0,0"/><path class="cls-1" d="M52.76,11.4A7,7,0,0,1,56.5,6.33c3.51-2,10.29-3,13.55-3.21S81.84,4.15,85.82,6s3.4,4.22,3.4,4.22l-19,45Zm0,0"/><path d="M77.86,18.62s-1.11-7.15,2.21-6-2.21,6-2.21,6Zm0,0"/><path d="M73.85,25.72s-2-6.94,1.4-6.19-1.4,6.19-1.4,6.19Zm0,0"/><path d="M63.28,18.53S57.74,13.87,61,12.59s2.24,5.94,2.24,5.94Zm0,0"/><path d="M70.8,17.73s-3.52-6.32,0-6.35,0,6.35,0,6.35Zm0,0"/><path d="M67.73,25.77s-4.56-5.62-1.09-6.26,1.09,6.26,1.09,6.26Zm0,0"/><path class="cls-2" d="M51.07,7.66,53,12.28S57.38,6.19,70.83,6.1s17.67,6.18,17.67,6.18l2.08-4.62S83.49.54,70.83.65s-19.76,7-19.76,7Zm0,0"/></g></g></svg>